<svg width="512" height="259" viewBox="0 0 512 259" fill="none" xmlns="http://www.w3.org/2000/svg">
<path d="M93.5348 82.4981C93.8459 82.7454 94.157 82.9926 94.5775 83.5398C95.3303 84.4086 95.9738 84.9773 96.6173 85.5461C96.6173 85.5461 96.6258 85.5458 96.6944 85.6884C97.2895 86.5829 97.961 86.4401 98.4424 85.9074C99.2568 85.006 99.9436 83.9895 100.684 83.0214C100.684 83.0214 100.684 82.9927 100.782 82.9306C100.99 82.7814 101.093 82.6875 101.191 82.5872C101.191 82.5872 101.221 82.5183 101.385 82.4654C101.77 82.2525 101.992 82.0924 102.213 81.9323C102.213 81.9323 102.222 81.9779 102.294 81.8957C102.484 81.689 102.602 81.5646 102.719 81.4402C102.719 81.4402 102.72 81.4761 102.797 81.3948C102.997 81.2022 103.111 81.0818 103.215 80.9521C103.334 80.8226 103.454 80.6931 103.827 80.4699C104.305 80.2206 104.53 80.065 104.755 79.9095C104.755 79.9095 104.718 79.94 104.884 79.8937C106.296 79.0091 107.543 78.1709 108.789 77.3327C108.789 77.3327 108.815 77.3578 108.941 77.3257C109.322 77.1478 109.576 77.002 109.831 76.8562C109.831 76.8562 109.768 76.8667 109.936 76.8205C110.861 76.3186 111.619 75.8629 112.377 75.4071C112.377 75.4071 112.503 75.3289 112.748 75.2986C113.299 75.12 113.606 74.9718 113.913 74.8235C113.913 74.8235 113.893 74.8582 114.077 74.8362C118.305 73.949 122.32 72.8889 126.402 72.2627C133.169 71.2246 139.896 71.7896 146.536 73.4429C147.349 73.6454 148.2 73.6951 149.033 73.8156C149.033 73.8156 148.999 73.8316 149.122 73.9379C152.861 76.0377 156.474 78.0383 160.1 80.0133C160.458 80.2084 160.902 80.2466 161.306 80.3577C161.306 80.3577 161.285 80.4434 161.327 80.5269C161.486 80.7303 161.607 80.8462 161.731 80.9579C161.731 80.9579 161.699 80.9673 161.79 81.0414C161.999 81.2343 162.118 81.3507 162.24 81.4649C162.24 81.4649 162.209 81.394 162.315 81.5352C163.367 82.4544 164.314 83.2326 165.26 84.0107C165.26 84.0107 165.254 84.0212 165.33 84.1088C165.508 84.3141 165.616 84.4248 165.732 84.5284C165.732 84.5284 165.764 84.5304 165.809 84.6812C166.016 85.0686 166.178 85.3053 166.34 85.542C166.34 85.542 166.29 85.5567 166.372 85.6267C166.581 85.8155 166.708 85.9343 166.834 86.0531C166.834 86.0531 166.79 86.0223 166.838 86.1647C167.225 86.72 167.565 87.1328 167.904 87.5457C167.904 87.5457 167.851 87.5941 167.913 87.6623C168.101 87.8487 168.225 87.9668 168.35 88.0849C168.35 88.0849 168.316 88.0736 168.365 88.2022C168.569 88.5868 168.724 88.8428 168.879 89.0987C168.879 89.0987 168.835 89.0313 168.901 89.1598C169.233 89.5704 169.5 89.8524 169.766 90.1343C169.766 90.1343 169.88 90.1029 169.911 90.1715C169.942 90.2402 169.879 90.4029 169.913 90.5694C170.107 91.0272 170.267 91.3185 170.554 91.6827C170.938 92.0519 171.194 92.3482 171.474 92.7634C171.562 93.0419 171.674 93.1527 171.831 93.1984C171.828 93.182 171.809 93.2097 171.825 93.4C173.058 97.6337 174.689 101.607 175.387 105.738C176.272 110.972 176.716 116.329 176.792 121.641C176.982 135.016 176.861 148.396 176.862 161.774C176.863 169.987 176.919 178.201 176.838 186.414C176.788 191.415 175.904 196.256 172.371 200.103C167.628 205.267 161.656 206.898 154.822 205.85C150.981 205.26 147.91 203.224 144.909 200.704C144.2 199.788 143.581 199.008 142.914 198.067C142.202 196.548 141.538 195.192 140.928 193.71C141.008 193.498 141.035 193.412 141.12 193.142C141.069 190.691 140.871 188.423 140.869 186.154C140.844 166.02 140.861 145.885 140.837 125.751C140.835 124.531 141.24 123.175 140.041 121.951C139.439 119.298 138.896 116.861 138.352 114.323C138.351 114.223 138.291 114.03 138.282 113.84C136.104 106.718 131.393 102.952 123.87 102.577C117.329 102.25 111.891 105.207 108.928 111.832C108.242 113.365 107.635 115.005 107.402 116.653C106.92 120.078 106.459 123.539 106.436 126.988C106.338 141.796 106.407 156.606 106.403 171.415C106.402 177.084 106.536 182.761 106.304 188.421C106.013 195.536 102.973 201.301 96.3423 204.327C89.7627 207.329 83.1523 206.87 77.0513 202.677C75.8769 201.869 74.8803 200.803 73.741 199.72C73.3847 199.187 73.089 198.791 72.7602 198.25C72.5589 197.868 72.3906 197.629 72.2226 197.39C72.2228 197.388 72.2206 197.388 72.1838 197.258C72.0055 197.032 71.8641 196.936 71.7822 196.855C71.8418 196.871 71.8728 196.752 71.8358 196.574C71.2804 195.181 70.7621 193.965 70.2276 192.771C70.2114 192.792 70.255 192.824 70.2628 192.619C70.0897 191.512 69.9088 190.61 69.7533 189.72C69.7785 189.732 69.8032 189.682 69.8063 189.45C69.7725 182.801 69.7117 176.383 69.7034 169.965C69.6835 154.594 69.6966 139.223 69.677 123.853C69.6723 120.118 69.3048 116.438 67.5983 112.836C63.7326 103.109 52.4043 99.512 43.9935 105.176C40.7663 107.349 38.7932 110.443 37.6488 114.1C36.4503 117.929 36.053 121.86 36.058 125.869C36.083 145.753 36.0544 165.638 36.0455 185.523C36.0436 189.727 35.4083 193.792 33.3044 197.508C31.6382 200.451 29.4278 202.824 26.0374 204.084C25.7694 204.249 25.6233 204.353 25.3853 204.495C25.2935 204.533 25.0964 204.556 24.8944 204.551C23.7534 204.878 22.8144 205.211 21.7951 205.566C21.7148 205.588 21.5495 205.568 21.298 205.558C17.3646 205.817 13.7721 205.118 10.1763 204.529C10.1844 204.516 10.1983 204.544 10.061 204.45C9.60626 204.253 9.28879 204.15 8.89386 204.041C8.81642 204.036 8.67723 203.967 8.61012 203.815C7.89082 203.284 7.23862 202.905 6.59355 202.509C6.60065 202.492 6.63417 202.506 6.52627 202.416C6.16805 202.204 5.91775 202.082 5.52649 201.885C4.95748 201.342 4.52941 200.875 4.06028 200.273C3.87505 199.895 3.73088 199.653 3.51108 199.322C3.32966 199.12 3.21468 199.017 3.05047 198.785C2.86684 198.398 2.72327 198.151 2.53689 197.723C0.349645 193.356 -0.0108192 188.88 0.000242403 184.248C0.0703197 154.912 0.0350641 125.575 0.0361344 96.2389C0.0362742 92.2709 -0.178822 88.2887 0.904447 84.3952C1.03558 83.9239 0.936879 83.3887 0.944698 82.8831C0.944698 82.8831 1.03009 82.9196 1.10786 82.8287C1.30758 82.3226 1.42953 81.9074 1.55147 81.4922C1.55147 81.4922 1.54652 81.4746 1.64076 81.3657C1.8497 81.0122 1.96442 80.7675 2.07914 80.5229C2.07914 80.5229 2.0625 80.472 2.16903 80.378C2.37934 80.1649 2.47748 80.0413 2.56998 79.9133C2.56998 79.9133 2.57026 79.9562 2.641 79.8474C2.83947 79.4866 2.96722 79.2346 3.09496 78.9826C3.09496 78.9826 3.08583 78.9488 3.23887 78.8808C3.61288 78.4912 3.83385 78.1695 4.05481 77.8478C4.05481 77.8478 4.09279 77.8808 4.17121 77.813C4.36785 77.6212 4.48607 77.4972 4.60427 77.3731C4.60427 77.3731 4.60436 77.4094 4.68117 77.3229C4.87567 77.1126 4.99336 76.9889 5.11106 76.8651C5.11106 76.8651 5.11333 76.9004 5.19017 76.8139C5.3844 76.6043 5.50178 76.4811 5.61918 76.3579C5.61918 76.3579 5.62237 76.3925 5.70001 76.3057C5.89475 76.0948 6.01184 75.9708 6.12893 75.8467C6.12893 75.8467 6.09183 75.8754 6.26258 75.8274C6.90335 75.5998 7.40771 75.4796 7.83817 75.2313C13.1847 72.1474 18.7226 72.1005 24.407 74.1308C25.1162 74.3841 25.8503 74.5678 26.5728 74.7837C26.5728 74.7837 26.5389 74.8494 26.624 74.9231C26.9803 75.1168 27.2515 75.2369 27.5227 75.3569C27.5227 75.3569 27.4945 75.3755 27.5788 75.4541C27.7876 75.65 27.912 75.7672 28.0364 75.8845C28.0364 75.8845 27.996 75.8829 28.0849 75.9568C28.2972 76.15 28.4207 76.2692 28.5441 76.3884C28.5441 76.3884 28.5085 76.3905 28.5978 76.4653C28.8098 76.6587 28.9326 76.7774 29.0554 76.896C29.0554 76.896 29.0194 76.8994 29.1074 76.9738C29.3183 77.167 29.441 77.2857 29.5638 77.4044C29.5638 77.4044 29.5278 77.4079 29.6158 77.4826C29.8269 77.6758 29.95 77.7943 30.0731 77.9128C30.0731 77.9128 30.0374 77.9177 30.123 77.9942C30.3324 78.1884 30.4563 78.3061 30.5802 78.4239C30.5802 78.4239 30.543 78.4276 30.6281 78.5041C30.8379 78.6983 30.9628 78.8159 31.0876 78.9335C31.0876 78.9335 31.0496 78.935 31.1214 79.0116C31.292 79.2135 31.3986 79.3317 31.5131 79.4427C31.5131 79.4427 31.5515 79.452 31.5702 79.6285C31.899 80.1966 32.209 80.5882 32.5191 80.9799C32.5191 80.9799 32.5654 80.9954 32.5818 81.1944C32.7829 82.3737 33.2114 83.2328 34.3076 83.2725C35.4193 83.3128 35.8627 82.4466 36.1216 81.4972C36.1216 81.4972 36.1216 81.4711 36.2706 81.4271C36.6587 81.2261 36.8978 81.0692 37.137 80.9123C37.137 80.9123 37.1477 80.9533 37.2211 80.8724C37.4115 80.6686 37.5285 80.5457 37.6455 80.4227C37.6455 80.4227 37.6036 80.4518 37.7348 80.3885C38.1358 80.0476 38.4056 79.7701 38.6753 79.4926C38.6753 79.4926 38.6833 79.4491 38.8369 79.4041C39.222 79.1995 39.4537 79.0399 39.6853 78.8802C39.6853 78.8802 39.6437 78.9235 39.7867 78.8744C40.3486 78.4976 40.7675 78.1699 41.1864 77.8423C41.1864 77.8423 41.17 77.8819 41.3146 77.8438C41.877 77.4801 42.2949 77.1546 42.7128 76.8291C42.7128 76.8291 42.6974 76.8673 42.8664 76.829C43.6663 76.5506 44.2992 76.3158 44.9275 76.0692C47.2091 75.1735 49.4366 74.0938 51.7798 73.4097C58.6456 71.4053 65.6325 71.3201 72.6385 72.5841C75.2925 73.063 77.913 73.7273 80.5488 74.3071C80.5488 74.3071 80.7201 74.3113 80.905 74.4816C81.7116 74.8778 82.3334 75.1036 82.9552 75.3294C82.9552 75.3294 82.9175 75.3394 83.0126 75.4678C84.2537 76.1732 85.3997 76.75 86.5457 77.3269C86.5457 77.3269 86.5163 77.3552 86.5938 77.4794C87.1451 77.8451 87.619 78.0867 88.093 78.3282C88.093 78.3282 88.0552 78.3666 88.1247 78.4878C88.6581 78.8691 89.1221 79.1292 89.586 79.3893C89.586 79.3893 89.5561 79.4345 89.621 79.5137C89.8098 79.711 89.9336 79.8291 90.0575 79.9472C90.0575 79.9472 90.0046 79.8983 90.1139 80.0146C90.6833 80.3976 91.1434 80.6644 91.6034 80.9312C91.6034 80.9312 91.5712 80.9605 91.6437 81.0395C91.8403 81.2374 91.9644 81.3562 92.0885 81.475C92.0885 81.475 92.0524 81.4745 92.1397 81.5503C92.3498 81.7437 92.4725 81.8614 92.5953 81.979C92.5953 81.979 92.5577 81.9744 92.67 82.0452C93.0332 82.2433 93.284 82.3707 93.5348 82.4981Z" fill="#43454C"/>
<path d="M231.323 208.087C230.714 207.812 230.116 207.509 229.493 207.268C228.719 206.968 228.156 206.547 228.353 205.381C228.435 205.152 228.524 204.997 228.591 204.98C228.744 204.91 228.784 204.832 228.923 204.636C229.518 203.778 229.969 203.014 230.572 202.142C233.867 196.489 234.576 190.725 232.301 184.538C232.155 184.134 232.005 183.882 231.85 183.646C231.846 183.662 231.878 183.668 231.888 183.476C229.828 177.2 225.599 173.143 219.796 170.698C210.938 166.964 200.049 169.649 194.318 176.767C192.556 175.781 192.523 174.032 192.181 172.536C190.767 166.348 191.525 160.536 195.955 155.693C204.274 146.599 219.412 148.129 225.859 158.649C227.316 161.026 228.616 163.501 230.115 165.849C230.775 166.883 231.756 167.712 232.593 168.65C232.595 168.667 232.629 168.666 232.663 168.829C237.227 174.525 243.124 177.475 250.187 178.107C252.287 178.295 254.414 178.256 256.526 178.214C260.141 178.142 263.538 177.176 266.73 175.49C276.453 170.353 278.801 159.586 276.434 152.034C276.391 151.721 276.274 151.617 276.084 151.618C276.086 151.638 276.126 151.634 276.157 151.436C275.733 148.926 274.577 146.976 273.015 145.258C270.01 141.954 266.272 139.83 261.918 139.006C259.02 138.458 256.041 138.086 253.099 138.085C247.225 138.082 241.874 136.837 237.398 132.622C237.105 132.246 236.852 131.999 236.546 131.574C235.782 129.681 234.813 128.026 234.405 126.243C232.284 116.959 236.154 108.576 246.133 106.22C247.934 105.794 249.792 105.557 251.637 105.387C255.889 104.996 260.03 104.203 263.777 102.06C269.043 99.0481 272.637 93.7236 270.924 85.7927C270.802 85.254 270.652 84.8719 270.502 84.5102C270.501 84.5305 270.541 84.5326 270.561 84.3367C269.01 79.0093 265.34 75.9664 260.471 74.274C256.225 72.7983 251.86 72.6803 247.454 73.6446C241.245 75.0035 236.669 78.7157 232.941 83.6402C231.512 85.5272 230.292 87.5736 228.835 89.437C223.696 96.0116 216 98.3663 208.217 95.9078C205.298 94.9857 203.073 93.0618 200.821 91.1495C200.828 91.1475 200.83 91.1569 200.786 91.0386C200.649 90.7686 200.519 90.6676 200.311 90.4937C200.149 90.2535 200.026 90.137 199.861 89.8485C198.199 86.7972 197.209 83.7383 197.12 80.4088C197.109 80.0137 196.904 79.6238 196.902 79.1492C197.042 78.8868 197.068 78.7066 197.162 78.3138C198.045 71.9855 200.464 66.5466 204.347 61.793C208.287 56.9687 212.963 52.9613 218.333 49.7767C219.051 49.3509 219.691 48.7938 220.367 48.2976C223.347 47.1168 226.287 45.8165 229.316 44.7766C240.476 40.9449 251.939 40.1681 263.587 41.6708C266.014 41.9839 268.419 42.4742 270.826 42.9248C271.47 43.0452 272.084 43.3206 272.939 43.5988C272.736 44.5815 272.556 45.453 272.273 46.6344C272.09 47.2556 272.01 47.5668 271.93 47.878C271.93 47.878 271.782 48.0837 271.661 48.3566C269.465 55.7405 270.287 62.3247 275.094 68.1848C275.094 68.1848 275.081 68.2442 275.135 68.3599C275.254 68.621 275.363 68.7173 275.515 68.7646C275.605 68.9233 275.696 69.082 275.958 69.4131C276.227 69.7238 276.358 69.8108 276.523 69.8466C276.523 69.8466 276.581 69.796 276.604 69.9386C276.727 70.2256 276.863 70.3175 277.034 70.357C277.034 70.357 277.095 70.3058 277.112 70.4453C277.226 70.7301 277.358 70.8256 277.527 70.8711C277.625 71.0097 277.722 71.1484 277.999 71.4668C278.495 71.8628 278.811 72.079 279.126 72.2953C279.815 72.8134 280.504 73.3315 281.426 73.9708C281.782 74.206 281.926 74.2647 282.093 74.2681C282.466 74.483 282.84 74.6978 283.444 75.0059C283.788 75.1953 283.92 75.2368 284.069 75.2235C284.261 75.3076 284.452 75.3917 284.878 75.5581C285.246 75.744 285.397 75.7896 285.566 75.777C285.778 75.8628 285.99 75.9487 286.529 76.1442C290.034 77.3887 293.358 77.7045 296.574 76.9243C299.788 76.1448 302.857 74.7662 306.118 73.6042C306.325 73.8752 306.625 74.2691 306.912 74.8444C307.156 75.9998 307.412 76.9739 307.659 78.1594C308.964 84.9569 308.858 91.5063 306.821 97.9266C304.034 106.71 298.59 113.341 290.397 117.666C289.645 118.063 288.622 118.211 288.296 119.397C291.039 120.678 293.703 121.923 296.468 123.309C300.22 126.026 303.679 128.82 306.445 132.369C307.733 134.022 308.946 135.733 310.219 137.544C310.38 137.764 310.514 137.858 310.65 137.925C310.651 137.899 310.598 137.897 310.583 138.06C310.759 138.47 310.951 138.716 311.142 138.944C311.141 138.925 311.104 138.924 311.096 139.118C311.174 139.639 311.209 139.99 311.354 140.287C313.946 145.626 315.236 151.295 315.475 157.192C316.026 170.801 311.785 182.692 302.414 192.638C295.134 200.365 286.11 205.24 275.996 208.105C262.603 211.899 249.096 211.972 235.546 208.886C234.15 208.568 232.731 208.351 231.323 208.087Z" fill="#FACF11"/>
<path d="M281.172 65.7097C280.612 64.8628 280.029 64.0303 279.497 63.167C273.709 53.7903 279.109 40.2972 291.783 39.342C293.353 39.2237 294.424 38.7107 295.47 37.558C305.909 26.0472 317.776 16.3089 331.631 9.17021C343.55 3.02855 356.117 -0.658581 369.7 0.0978354C381.823 0.772911 392.91 4.54877 402.894 11.4616C409.329 15.9165 415.073 21.1596 420.176 27.0923C421.032 28.0872 421.894 28.8647 423.287 29.0433C428.864 29.7582 432.744 32.8411 435.219 37.8081C435.332 38.0352 435.451 38.2594 435.657 38.7579C435.746 39.031 435.807 39.265 435.807 39.265C435.78 39.4304 435.816 39.5806 436.02 40.0107C436.214 40.9771 436.307 41.6477 436.394 42.3192C437.265 49.0537 434.796 54.4449 429.134 57.9295C423.522 61.3834 417.583 61.4917 411.926 57.6178C410.814 56.857 409.796 55.9602 408.639 54.9793C407.556 52.9933 406.26 51.2481 405.664 49.29C404.993 47.0812 404.951 44.6808 404.722 42.2019C405.481 40.6367 404.877 39.5994 403.845 38.6856C400.109 35.3764 396.576 31.7959 392.593 28.8166C384.776 22.9691 375.844 19.9961 366.046 20.0271C357.766 20.0533 350.002 22.3824 342.587 25.9288C330.26 31.8238 319.948 40.3871 310.543 50.1607C309.207 51.5491 308.399 52.9248 308.903 54.8983C309.043 55.4464 308.93 56.0812 308.842 56.6622C307.876 62.9819 304.431 67.4906 298.484 69.7117C292.727 71.8616 287.318 70.7963 282.563 66.7986C282.112 66.4199 281.636 66.0719 281.172 65.7097Z" fill="#42434C"/>
<path d="M281.17 65.9077C281.636 66.0719 282.112 66.4199 282.563 66.7986C287.318 70.7963 292.727 71.8616 298.484 69.7117C304.431 67.4906 307.876 62.9819 308.842 56.6622C308.93 56.0812 309.043 55.4464 308.903 54.8983C308.399 52.9248 309.207 51.5491 310.543 50.1607C319.948 40.3871 330.26 31.8238 342.587 25.9288C350.002 22.3824 357.766 20.0533 366.046 20.0271C375.844 19.9961 384.776 22.9691 392.593 28.8166C396.576 31.7959 400.109 35.3764 403.845 38.6856C404.877 39.5994 405.481 40.6367 404.558 42.1532C403.888 41.9879 403.441 41.7428 403.053 41.4258C400.367 39.2345 397.79 36.8973 395 34.8501C384.478 27.1298 372.782 24.3217 359.936 26.971C350.591 28.898 342.132 32.9938 334.332 38.3549C327.063 43.3515 320.471 49.1959 314.383 55.6003C313.259 56.7821 312.544 57.9809 312.698 59.643C313.026 63.1835 312.005 66.3316 309.895 69.1667C309.548 69.6341 309.34 70.2059 308.929 70.8006C308.409 71.026 308.027 71.1804 307.426 71.3395C304.872 71.5053 302.54 71.7558 300.203 71.8011C298.086 71.8421 296.603 72.7302 296.022 74.7197C295.586 76.2134 294.666 76.499 293.374 76.3193C292.713 76.2272 292.066 76.0341 291.412 75.8866C287.757 74.5761 284.231 73.05 282.298 69.3736C281.767 68.3654 281.537 67.1993 281.17 65.9077Z" fill="black" fill-opacity="0.33"/>
<path d="M436.561 39.8136C441.449 45.2387 441.569 54.1663 437.119 59.7281C433.635 64.0825 428.985 66.1306 423.007 66.2235C420.774 65.8195 418.888 65.6426 417.195 64.9734C412.7 63.1958 409.679 60.0194 408.735 55.126C409.796 55.9601 410.814 56.8569 411.926 57.6178C417.583 61.4916 423.522 61.3834 429.134 57.9294C434.796 54.4449 437.265 49.0537 436.394 42.3191C436.307 41.6477 436.214 40.977 436.106 40.0919C436.193 39.8622 436.298 39.8466 436.561 39.8136Z" fill="black" fill-opacity="0.33"/>
<path d="M275.075 67.9746C270.287 62.3247 269.465 55.7405 271.643 48.4823C273.031 48.7142 274.321 49.0813 275.599 49.4842C275.821 49.5544 275.996 49.7756 276.427 50.1072C274.224 55.7873 274.031 61.7375 275.075 67.9746Z" fill="black" fill-opacity="0.33"/>
<path d="M88.5187 216.72C88.9368 216.581 89.3549 216.443 90.0645 216.193C90.5089 215.956 90.6618 215.829 90.8147 215.703C91.1333 215.705 91.452 215.708 92.1279 215.663C94.855 215.216 97.2067 215.334 99.5255 215.935C104.844 217.316 108.347 220.743 110.371 225.748C110.905 227.07 111.58 228.038 113.008 228.569C122.526 232.102 132.182 233.042 142.146 230.658C153.732 227.886 163.879 222.296 173.139 215.012C177.11 211.889 180.759 208.356 184.689 204.945C185.078 204.578 185.332 204.277 185.694 203.925C185.938 203.778 186.026 203.649 186.215 203.411C187.119 202.527 187.876 201.718 188.782 200.833C190.033 199.618 191.056 198.389 192.252 197.361C194.788 195.179 195.936 192.542 195.361 189.092C195.444 188.804 195.401 188.653 195.401 188.4C195.596 187.928 195.665 187.582 195.771 187.149C195.808 187.062 195.803 186.873 195.903 186.75C196.075 186.325 196.147 186.023 196.324 185.58C196.909 184.511 197.389 183.581 198.006 182.557C200.484 179.279 203.572 177.185 207.405 176.244C208.628 175.943 209.896 175.828 211.356 175.679C216.051 175.904 219.947 177.468 222.808 180.977C224.218 182.706 225.225 184.763 226.416 186.884C226.551 187.933 226.735 188.764 226.807 189.605C227.664 199.635 221.477 206.858 211.415 207.462C209.971 207.549 209.095 208.209 208.197 209.164C205.062 212.493 201.961 215.858 198.707 219.068C187.7 229.924 175.434 238.99 161.188 245.217C152.965 248.812 144.406 251.138 135.453 251.722C124.899 252.41 114.674 250.732 104.895 246.648C103.091 245.894 101.484 245.715 99.5427 246.282C94.3157 247.806 89.4891 246.847 85.2825 243.252C84.8352 242.87 84.3454 242.537 83.8754 242.181C83.1489 241.17 82.4224 240.159 81.5683 239.033C81.2059 238.361 80.9711 237.803 80.5997 236.956C80.2729 236.236 80.0827 235.806 79.8925 235.376C79.8925 235.376 79.8908 235.176 79.8532 234.905C79.6659 234.324 79.5162 234.014 79.3665 233.703C79.5082 233.585 79.558 233.436 79.4807 232.91C79.6393 230.51 79.8332 228.457 80.0271 226.404C80.2023 226.012 80.3775 225.621 80.6654 224.963C80.8589 224.445 80.9397 224.193 81.0204 223.941C81.0204 223.941 80.9841 223.831 81.058 223.811C81.2095 223.635 81.2871 223.478 81.3647 223.32C81.523 223.099 81.6813 222.878 81.9777 222.448C82.1957 222.09 82.2757 221.94 82.3557 221.79C82.3557 221.79 82.3893 221.785 82.5111 221.677C82.811 221.309 82.9893 221.05 83.1675 220.791C84.0381 220.043 84.9087 219.294 86.012 218.355C86.3955 218.026 86.5462 217.887 86.6969 217.747C86.9135 217.657 87.1301 217.568 87.5631 217.348C88.0258 217.051 88.2723 216.886 88.5187 216.72Z" fill="#42444A"/>
<path d="M83.885 242.375C84.3455 242.537 84.8352 242.87 85.2825 243.252C89.4891 246.847 94.3157 247.806 99.5427 246.282C101.484 245.715 103.091 245.894 104.895 246.648C114.674 250.732 124.899 252.41 135.453 251.722C144.406 251.138 152.965 248.812 161.188 245.217C175.434 238.99 187.7 229.924 198.707 219.068C201.961 215.858 205.062 212.493 208.197 209.164C209.095 208.209 209.971 207.549 211.415 207.462C221.477 206.858 227.664 199.635 226.807 189.605C226.735 188.764 226.551 187.933 226.563 186.959C228.726 188.782 229.636 191.28 230.296 193.947C230.982 196.724 230.642 199.48 230.421 202.251C229.969 203.014 229.518 203.778 228.87 204.667C228.604 204.847 228.555 204.915 228.524 204.997C228.524 204.997 228.435 205.152 228.358 205.2C225.876 210.153 221.582 212.235 216.107 213.176C213.772 213.466 212.331 214.497 210.995 215.907C208.152 218.909 205.151 221.76 202.264 224.722C196.994 230.128 191.242 234.957 185.092 239.33C176.498 245.441 167.453 250.67 157.322 253.839C156.037 254.241 154.803 254.804 153.545 255.292C149.643 256.012 145.761 256.861 141.837 257.423C134.662 258.452 127.484 258.149 120.438 256.512C115.595 255.387 110.868 253.763 106.068 252.441C105.144 252.186 104.049 252.043 103.151 252.285C97.6942 253.756 92.7381 252.571 88.2173 249.47C85.8534 247.849 84.3566 245.482 83.885 242.375Z" fill="black" fill-opacity="0.33"/>
<path d="M300.956 203.434C299.652 204.359 298.348 205.283 296.773 206.396C295.105 207.335 293.748 208.177 292.304 208.822C288.264 210.626 284.187 212.348 280.124 214.103C277.313 214.663 274.509 215.263 271.689 215.774C266.369 216.738 260.983 217.378 255.594 217.125C249.627 216.844 243.627 216.492 237.635 214.747C237.217 214.701 236.993 214.686 236.442 214.567C234.361 214.015 232.608 213.565 230.854 213.115C230.073 212.211 229.942 211.318 230.677 210.268C231.029 209.764 231.103 209.065 231.313 208.271C232.731 208.351 234.15 208.569 235.546 208.886C249.096 211.972 262.603 211.899 275.996 208.105C286.11 205.24 295.134 200.365 302.414 192.638C311.785 182.692 316.026 170.801 315.475 157.192C315.236 151.295 313.946 145.626 311.354 140.287C311.209 139.99 311.174 139.639 311.241 139.213C311.814 139.635 312.301 140.117 312.642 140.686C316.684 147.443 319.187 154.678 319.299 162.626C319.339 165.401 319.299 168.178 319.246 171.148C318.877 173.242 318.558 175.143 318.141 177.196C317.271 179.623 316.499 181.896 315.612 184.299C313.541 187.732 311.586 191.035 309.497 194.441C307.003 197.123 305.064 200.1 302.127 202.136C301.661 202.46 301.343 202.996 300.956 203.434Z" fill="black" fill-opacity="0.33"/>
<path d="M428.755 211.113C425.24 212.161 421.815 212.482 418.365 211.932C412.845 211.052 408.861 207.908 405.954 202.915C406.094 202.393 406.298 202.151 406.66 201.957C410.743 205.016 415.15 206.306 420.111 206.061C428.4 205.652 434.798 200.578 436.671 192.484C437.179 190.285 437.299 187.957 437.304 185.688C437.348 165.874 437.308 146.061 437.337 126.247C437.343 121.834 437.702 117.449 439.279 113.257C441.806 106.535 446.527 102.873 453.821 102.588C460.719 102.318 466.746 106.245 468.569 112.491C468.007 112.47 467.632 112.451 467.153 112.298C465.413 111.259 463.776 110.354 461.96 109.368C458.072 107.814 454.472 108.216 450.79 109.998C447.05 111.752 444.889 114.611 443.473 118.248C441.838 122.445 441.49 126.866 441.41 131.223C441.254 139.679 441.597 148.144 441.723 156.605C441.735 157.45 441.69 158.296 441.64 159.14C441.545 160.743 441.339 162.344 441.333 163.946C441.299 173.602 441.353 183.259 441.278 192.915C441.25 196.602 440.291 200.069 438.414 203.316C436.742 206.21 434.241 208.161 431.621 210.042C431.026 210.303 430.431 210.564 429.71 210.925C429.363 211.05 429.142 211.073 428.755 211.113Z" fill="black" fill-opacity="0.33"/>
<path d="M135.282 111.955C131.31 108.605 126.813 107.896 121.538 109.409C117.664 110.737 114.878 112.929 113.366 116.306C112.274 118.744 111.376 121.382 111.034 124.014C110.527 127.928 110.588 131.916 110.407 135.873C110.405 137.246 110.403 138.618 110.396 140.446C110.398 142.108 110.406 143.316 110.399 144.752C110.396 146.349 110.406 147.719 110.405 149.327C110.381 163.771 110.412 177.978 110.314 192.183C110.299 194.429 109.701 196.671 109.372 198.915C106.673 207.458 100.456 211.928 90.7491 212.152C83.6504 212.174 78.6149 208.95 75.0349 203.264C74.4657 202.359 74.214 201.255 73.8086 200.05C74.8803 200.803 75.8769 201.87 77.0513 202.677C83.1523 206.87 89.7627 207.329 96.3423 204.327C102.973 201.301 106.013 195.536 106.304 188.422C106.536 182.761 106.402 177.084 106.403 171.415C106.407 156.606 106.338 141.796 106.436 126.988C106.459 123.539 106.92 120.078 107.402 116.653C107.635 115.005 108.242 113.365 108.928 111.832C111.891 105.207 117.329 102.25 123.87 102.577C131.393 102.952 136.104 106.718 138.122 113.791C137.074 113.272 136.178 112.613 135.282 111.955Z" fill="black" fill-opacity="0.33"/>
<path d="M40.1835 192.309C40.1835 192.309 40.1769 192.56 40.1562 192.889C39.7997 194.956 39.5203 196.707 39.1166 198.429C38.2218 202.246 36.2615 205.476 33.2139 207.91C29.5441 210.84 25.3396 212.445 20.5543 212.136C18.6255 212.011 16.7027 211.794 14.7772 211.62C13.0452 210.792 11.3133 209.964 9.30623 208.955C7.23982 206.493 5.44853 204.213 3.65424 201.735C3.65645 201.138 3.66168 200.741 3.77588 200.357C3.88485 200.371 4.10133 200.408 4.10133 200.408C4.52941 200.875 4.95747 201.342 5.61941 201.995C6.11358 202.289 6.37387 202.398 6.63417 202.506C6.63417 202.506 6.60065 202.492 6.66354 202.656C7.3767 203.202 8.02697 203.585 8.67723 203.967C8.67723 203.967 8.81641 204.036 9.02624 204.151C9.55683 204.359 9.87757 204.452 10.1983 204.544C10.1983 204.544 10.1844 204.516 10.2988 204.665C14.0366 206.377 17.7519 206.579 21.5495 205.568C21.5495 205.568 21.7148 205.588 21.9907 205.569C23.2098 205.218 24.1531 204.887 25.0964 204.556C25.0964 204.556 25.2935 204.533 25.5144 204.451C25.8767 204.255 26.0179 204.139 26.1592 204.023C29.4278 202.824 31.6382 200.451 33.3044 197.508C35.4083 193.792 36.0436 189.727 36.0455 185.523C36.0544 165.638 36.083 145.753 36.058 125.869C36.053 121.86 36.4503 117.929 37.6488 114.1C38.7932 110.443 40.7663 107.349 43.9935 105.176C52.4043 99.512 63.7326 103.109 67.4336 112.836C67.0603 113.015 66.8406 113.01 66.5004 112.886C64.7691 111.827 63.1582 110.887 61.3936 109.84C57.6532 108.059 54.0186 108.327 50.2223 109.523C49.6611 109.861 49.24 110.139 48.6458 110.463C47.2944 111.429 45.9342 112.19 44.9705 113.297C41.4652 117.322 40.2472 122.254 40.2263 127.412C40.1388 149.044 40.1858 170.677 40.1835 192.309Z" fill="black" fill-opacity="0.33"/>
<path d="M177.995 202.981C176.273 205.78 173.884 207.887 171.161 209.674C164.444 214.08 154.745 212.314 149.439 208.12C147.221 206.367 145.511 204.153 145.001 201.037C147.91 203.224 150.982 205.26 154.822 205.85C161.656 206.898 167.628 205.267 172.371 200.103C175.904 196.256 176.788 191.415 176.838 186.414C176.919 178.201 176.863 169.987 176.862 161.774C176.861 148.396 176.982 135.016 176.792 121.641C176.716 116.329 176.273 110.972 175.387 105.738C174.689 101.607 173.058 97.6337 171.825 93.4C172.584 94.0474 173.597 94.7657 174.089 95.7455C175.446 98.4479 176.586 101.26 177.902 104.357C178.135 105.088 178.279 105.491 178.422 105.895C179.181 110.211 179.997 114.518 180.672 118.847C180.943 120.587 180.989 122.376 180.991 124.143C181.019 143.484 181.018 162.826 181.029 182.536C181.033 182.991 181.034 183.077 181.027 183.401C181.012 187.202 181.006 190.766 180.91 194.501C180.25 197.568 179.661 200.458 177.995 202.981Z" fill="black" fill-opacity="0.33"/>
<path d="M270.561 84.3366C267.393 82.0517 264.026 80.0516 259.986 79.3535C251.673 77.9173 244.606 80.2159 238.967 86.4783C237.12 88.5297 235.701 90.9622 234.024 93.173C232.906 94.6466 231.678 96.0365 230.401 97.6026C230.008 97.9759 229.713 98.2104 229.176 98.6173C228.199 99.268 227.465 99.7463 226.73 100.225C225.661 100.71 224.592 101.194 223.181 101.823C218.365 103.404 213.97 103.135 209.631 101.39C208.943 101.113 208.198 100.974 207.381 100.638C206.335 99.7353 205.388 98.9669 204.441 98.1985C203.514 96.9222 202.586 95.6458 201.479 94.0828C201.138 92.9145 200.976 92.033 200.815 91.1514C203.072 93.0618 205.298 94.9857 208.217 95.9077C216 98.3663 223.696 96.0116 228.835 89.437C230.291 87.5736 231.512 85.5272 232.941 83.6402C236.669 78.7157 241.245 75.0035 247.454 73.6446C251.86 72.6803 256.225 72.7982 260.471 74.274C265.34 75.9663 269.01 79.0092 270.561 84.3366Z" fill="black" fill-opacity="0.33"/>
<path d="M311.704 99.2762C309.829 108.225 305.389 115.522 297.888 120.887C297.26 121.336 296.898 122.158 296.391 122.987C293.704 121.923 291.039 120.678 288.296 119.397C288.622 118.211 289.645 118.063 290.397 117.666C298.59 113.342 304.034 106.71 306.821 97.9267C308.858 91.5064 308.964 84.957 307.849 78.161C309.373 77.8772 310.056 78.6283 310.332 79.8074C310.978 82.5631 311.588 85.327 312.203 88.3206C312.199 90.2621 312.206 91.9706 312.201 93.9043C312.028 95.845 311.866 97.5606 311.704 99.2762Z" fill="black" fill-opacity="0.33"/>
<path d="M198.006 182.557C196.633 182.302 196.316 181.203 195.901 180.201C195.485 179.195 195.114 178.17 194.592 176.989C200.049 169.649 210.938 166.965 219.796 170.698C225.599 173.143 229.828 177.2 231.745 183.381C229.965 181.919 228.499 180.131 226.677 178.849C222.764 176.099 218.112 175.532 213.496 175.073C212.737 174.998 211.929 175.43 211.143 175.628C209.896 175.828 208.628 175.943 207.405 176.244C203.572 177.185 200.484 179.279 198.006 182.557Z" fill="black" fill-opacity="0.33"/>
<path d="M276.157 151.437C274.684 150.505 273.242 149.376 271.652 148.164C269.926 147.268 268.348 146.456 266.404 145.552C262.863 144.383 259.61 143.847 256.251 144.039C252.339 144.171 248.532 143.715 244.636 141.88C243.574 141.276 242.815 140.828 242.057 140.381C241.29 139.611 240.524 138.842 239.547 137.835C238.88 136.852 238.423 136.108 237.965 135.363C237.798 134.621 237.63 133.878 237.45 132.944C241.874 136.837 247.225 138.083 253.099 138.085C256.042 138.086 259.02 138.458 261.918 139.006C266.272 139.83 270.01 141.954 273.015 145.258C274.577 146.976 275.733 148.926 276.157 151.437Z" fill="black" fill-opacity="0.33"/>
<path d="M330.232 97.2567C330.271 95.5328 330.31 93.8089 330.377 91.6353C330.651 88.9651 330.898 86.7444 331.172 84.4727C331.198 84.4216 331.149 84.3176 331.259 84.1744C331.59 83.3588 331.81 82.6863 332.016 82.0037C332.001 81.9935 332.03 82.0104 332.135 81.9054C332.34 81.525 332.439 81.2496 332.566 80.9196C332.594 80.8649 332.569 80.7448 332.695 80.6468C332.913 80.3605 333.005 80.1721 333.19 79.9079C333.384 79.6203 333.485 79.4084 333.71 79.1016C333.932 78.8278 334.031 78.649 334.261 78.3683C338.219 73.6684 343.231 72.0272 349.065 72.2221C356.617 72.4744 361.726 76.3238 364.981 83.1784C365.877 82.4443 366.526 81.94 367.145 81.402C378.375 71.6462 391.399 69.2308 405.611 72.2812C409.129 73.0364 412.464 74.6475 416.004 75.9881C417.952 77.2702 419.78 78.4293 421.72 79.7269C424.005 81.797 426.177 83.7288 428.816 86.0754C429.505 85.1456 430.099 84.3457 430.815 83.4982C431.181 83.2016 431.424 82.9524 431.801 82.6398C432.145 82.3729 432.355 82.1694 432.688 81.9166C432.929 81.7376 433.046 81.6079 433.323 81.4146C435.583 79.8764 437.684 78.4019 439.784 76.9273C440.376 76.6376 440.969 76.3479 441.83 75.9139C442.256 75.6469 442.414 75.5242 442.571 75.4015C442.571 75.4015 442.718 75.4137 442.932 75.3443C443.303 75.1449 443.46 75.015 443.617 74.8851C443.617 74.8851 443.726 74.9375 443.94 74.8935C444.435 74.7011 444.716 74.5528 444.997 74.4045C444.997 74.4045 445.194 74.389 445.456 74.3237C446.363 73.9722 447.009 73.6859 447.655 73.3997C447.655 73.3997 447.786 73.4238 448.016 73.3803C448.554 73.1858 448.861 73.0348 449.169 72.8839C449.169 72.8839 449.301 72.9165 449.545 72.8792C450.105 72.6799 450.422 72.5177 450.739 72.3556C450.907 72.3707 451.075 72.3858 451.539 72.3491C452.148 72.1474 452.46 71.9977 452.772 71.848C453.084 71.8509 453.397 71.8537 453.859 71.805C457.907 71.5259 461.804 71.2982 466.135 71.0905C466.982 71.1159 467.396 71.1214 467.811 71.1269C473.621 71.7292 479.266 72.9935 484.831 75.3535C487.768 77.2406 490.52 79.096 493.515 81.172C495.568 83.3541 497.377 85.3154 499.185 87.2768C500.196 88.9636 501.207 90.6504 502.34 92.6595C503.426 95.6006 504.48 98.1906 505.337 100.844C507.229 106.703 507.721 112.792 507.825 118.889C507.965 127.098 507.855 135.312 507.856 143.525C507.856 157.917 507.88 172.31 507.849 186.702C507.838 191.844 506.591 196.615 503.024 200.519C497.133 206.966 486.377 208.058 478.807 203.007C477.824 202.351 476.898 201.607 475.878 200.768C475.484 200.244 475.157 199.856 474.83 199.468C474.83 199.468 474.844 199.438 474.79 199.287C474.439 198.719 474.142 198.302 473.839 197.891C473.833 197.897 473.845 197.886 473.809 197.754C473.662 197.482 473.549 197.342 473.437 197.201C473.437 197.201 473.316 197.004 473.2 196.772C472.84 195.94 472.595 195.341 472.35 194.741C472.35 194.741 472.332 194.525 472.277 194.223C471.878 191.166 471.297 188.416 471.235 185.654C471.088 179.065 471.189 172.469 471.185 165.876C471.177 152.183 471.225 138.49 471.122 124.797C471.09 120.589 470.951 116.322 468.757 112.493C466.746 106.245 460.719 102.318 453.821 102.588C446.527 102.873 441.806 106.535 439.279 113.257C437.702 117.449 437.343 121.834 437.337 126.247C437.309 146.061 437.348 165.874 437.304 185.688C437.299 187.957 437.179 190.285 436.671 192.484C434.798 200.578 428.4 205.652 420.111 206.061C415.15 206.306 410.743 205.016 406.555 201.809C405.279 200.312 404.265 199.012 403.251 197.711C402.748 196.699 402.246 195.688 401.716 194.322C401.526 193.502 401.363 193.038 401.199 192.573C401.199 192.573 401.225 192.436 401.2 192.186C401.107 191.568 401.038 191.201 400.97 190.833C400.92 190.412 400.869 189.99 400.771 189.183C400.704 186.94 400.669 185.083 400.668 183.226C400.664 164.144 400.67 145.063 400.658 125.982C400.657 124.55 400.546 123.118 400.486 121.686C400.482 121.447 400.478 121.208 400.444 120.606C400.161 119.258 399.908 118.274 399.655 117.289C399.655 117.289 399.765 117.306 399.78 117.039C399.587 116.124 399.378 115.476 399.169 114.829C399.141 114.654 399.113 114.48 399.031 113.997C397.884 111.703 397.104 109.442 395.641 107.784C391.462 103.048 386.002 101.723 379.946 102.998C373.971 104.256 370.304 108.204 368.74 113.914C367.833 117.226 367.284 120.722 367.183 124.154C366.953 131.933 367.098 139.723 367.095 147.51C367.09 160.797 367.252 174.086 367.036 187.37C366.834 199.859 357.1 208.679 343.295 205.388C340.83 204.801 338.625 203.123 336.198 201.83C335.914 201.616 335.732 201.522 335.552 201.445C335.554 201.463 335.59 201.458 335.543 201.329C335.346 201.105 335.196 201.01 335.075 200.927C335.104 200.941 335.131 200.882 335.071 200.721C334.226 199.457 333.442 198.353 332.657 197.25C332.657 197.25 332.643 197.292 332.634 197.143C332.475 196.753 332.327 196.512 332.158 196.276C332.137 196.282 332.148 196.322 332.137 196.149C331.936 195.566 331.747 195.155 331.541 194.634C331.524 194.524 331.443 194.316 331.422 194.165C331.28 193.856 331.158 193.698 331.077 193.48C331.117 193.42 331.092 193.278 331.082 193.06C330.854 190.066 330.453 187.29 330.447 184.514C330.395 159.644 330.414 134.774 330.401 109.904C330.401 108.892 330.3 107.881 330.277 106.635C330.283 103.353 330.257 100.305 330.232 97.2567Z" fill="#43444C"/>
<path d="M475.946 200.904C476.898 201.607 477.824 202.351 478.807 203.007C486.377 208.058 497.133 206.966 503.024 200.519C506.591 196.615 507.838 191.844 507.849 186.702C507.88 172.31 507.856 157.917 507.856 143.525C507.855 135.312 507.965 127.098 507.825 118.889C507.721 112.792 507.229 106.703 505.337 100.844C504.48 98.1905 503.426 95.6006 502.451 92.7971C502.8 92.7618 503.16 92.9112 503.708 93.2942C505.213 95.968 506.531 98.4081 507.848 100.848C508.775 104.31 509.719 107.767 510.617 111.236C510.908 112.363 511.075 113.521 511.38 115.027C511.6 115.953 511.74 116.517 511.88 117.082C511.914 123.698 511.947 130.314 511.98 137.358C511.986 138.163 511.992 138.541 511.999 138.919C511.997 139.148 511.995 139.377 511.986 140.015C511.984 144.498 511.99 148.573 511.995 152.647C511.991 165.71 511.987 178.772 511.985 192.24C511.99 192.869 511.995 193.092 512 193.315C511.987 193.698 511.974 194.081 511.959 194.655C511.51 196.592 511.062 198.338 510.492 200.432C509.363 202.512 508.356 204.244 507.21 206.072C504.639 208.423 502.022 210.357 498.743 211.229C498.191 211.376 497.702 211.763 497.184 212.039C495.933 212.068 494.679 212.054 493.431 212.134C490.134 212.345 486.94 211.938 483.587 210.481C481.682 209.03 480.068 207.756 478.454 206.482C477.869 205.706 477.284 204.93 476.521 203.883C476.001 202.726 475.66 201.84 475.476 200.943C475.737 200.921 475.841 200.913 475.946 200.904Z" fill="black" fill-opacity="0.33"/>
<path d="M336.3 201.948C338.625 203.123 340.83 204.801 343.295 205.388C357.1 208.679 366.834 199.859 367.036 187.37C367.252 174.086 367.09 160.797 367.095 147.51C367.098 139.724 366.953 131.933 367.183 124.154C367.284 120.722 367.833 117.226 368.74 113.914C370.304 108.204 373.971 104.256 379.946 102.998C386.002 101.723 391.462 103.048 395.641 107.784C397.104 109.442 397.884 111.703 398.983 113.873C398.246 113.513 397.457 113.022 396.766 112.418C391.845 108.126 384.408 107.487 378.754 110.778C376.012 112.374 374.519 114.918 373.368 117.642C371.808 121.331 371.125 125.241 371.13 129.276C371.152 149.762 371.142 170.249 371.14 190.735C371.14 194.687 370.43 198.491 368.56 202.003C365.079 208.541 359.65 211.91 352.197 212.155C346.623 212.338 341.826 210.605 338.013 206.599C336.594 205.108 335.742 203.08 334.736 201.105C334.938 200.903 335.034 200.893 335.131 200.882C335.131 200.882 335.104 200.941 335.165 201.019C335.347 201.217 335.468 201.338 335.59 201.458C335.59 201.458 335.554 201.463 335.672 201.538C335.96 201.725 336.13 201.837 336.3 201.948Z" fill="black" fill-opacity="0.33"/>
</svg>
